<?xml version="1.0" encoding="UTF-8"?>
<svg width="187px" height="69px" viewBox="0 0 187 69" version="1.1" xmlns="http://www.w3.org/2000/svg" xmlns:xlink="http://www.w3.org/1999/xlink">
    <!-- Generator: Sketch 57.1 (83088) - https://sketch.com -->
    <title>Slice 1</title>
    <desc>Created with Sketch.</desc>
    <g id="Page-1" stroke="none" stroke-width="1" fill="none" fill-rule="evenodd">
        <g id="logo">
            <polygon id="Fill-1" fill="#E21F26" points="41.1754539 59.1937772 41.3561426 59.9731984 43.3640661 59.5068501 44.6606296 65.1323795 45.55512 64.9252948 44.2593704 59.2989501 46.2689217 58.8342325 46.0906748 58.0588878"></polygon>
            <path d="M49.3074219,64.0588818 L48.3885141,60.0663865 C48.4161871,60.0460041 48.4633941,60.0199147 48.529321,59.9864876 C48.595248,59.9497994 48.6717558,59.9147418 48.7596584,59.8796841 C48.8434915,59.8454418 48.9362776,59.8071229 49.0306915,59.7728806 C49.1259193,59.7378229 49.2187054,59.7084724 49.3098637,59.68809 C49.5393871,59.6367265 49.7363541,59.6196053 49.9048341,59.6440641 C50.0725002,59.6660771 50.214935,59.7313006 50.3386497,59.8397347 C50.4607367,59.9489841 50.5641037,60.1006288 50.6536341,60.3011912 C50.7423506,60.5017535 50.8180445,60.7496029 50.888855,61.0455547 L51.4675471,63.5574759 L52.3237837,63.3593594 L51.7019541,60.6639971 C51.6262602,60.3370641 51.5269628,60.0460041 51.4048758,59.7883712 C51.2787193,59.5307382 51.1200063,59.3228382 50.9238532,59.1646712 C50.7301419,59.0056888 50.4924793,58.9005159 50.2173767,58.8515982 C49.9398323,58.8018653 49.6110115,58.8230629 49.2284723,58.9102994 C49.053481,58.9518794 48.8736063,59.0105806 48.7026845,59.0839571 C48.529321,59.1605947 48.3681663,59.2478312 48.2224758,59.3448512 L47.6543645,56.88837 L46.8314984,57.2356853 L48.4519993,64.2553676 L49.3074219,64.0588818 Z" id="Fill-2" fill="#E21F26"></path>
            <path d="M56.0810504,59.4748091 C55.9980313,59.0842832 55.8279235,58.789962 55.5690991,58.5861385 C55.3143443,58.3831302 55.008313,58.3219832 54.6591443,58.4026973 C54.4621774,58.4459079 54.2985809,58.5258067 54.1642852,58.6358714 C54.0308035,58.7508279 53.9274365,58.8804596 53.8509287,59.0296585 C53.7752348,59.1747808 53.7255861,59.3345785 53.7036104,59.5074208 C53.6824487,59.6835244 53.6840765,59.8531055 53.7027965,60.0251326 L56.0810504,59.4748091 Z M52.8986504,60.7075338 C52.800167,60.2803196 52.7749357,59.898762 52.8253983,59.552262 C52.8734191,59.2065773 52.9784139,58.9057338 53.1306157,58.6489161 C53.2877009,58.3929138 53.4862957,58.180122 53.7231443,58.0154326 C53.9640626,57.8507432 54.222887,57.7349714 54.4996174,57.6689326 C55.1458643,57.5213644 55.6879304,57.6094161 56.12256,57.9322726 C56.5604452,58.2543138 56.8754296,58.8299114 57.0634435,59.6558044 C57.0756522,59.6933079 57.0854191,59.7414102 57.0968139,59.8009267 C57.1130922,59.857182 57.1220452,59.9118067 57.1261148,59.9623549 L53.8436035,60.7230244 C53.9949913,61.2113855 54.2277704,61.5570702 54.5386852,61.7551867 C54.8512278,61.9565644 55.2728348,61.9956985 55.8075757,61.8717738 C56.1103513,61.8049196 56.356967,61.7168679 56.5506783,61.6157714 C56.7435757,61.5195667 56.8884522,61.4331455 56.9820522,61.3597691 L57.2677357,62.0519538 C57.1757635,62.1318526 57.0072835,62.2313185 56.7565983,62.3536126 C56.5107965,62.4759067 56.2234852,62.5729267 55.8897809,62.6528255 C55.4722435,62.7473996 55.0954017,62.7685973 54.7625113,62.712342 C54.4296209,62.656902 54.1398678,62.5403149 53.8916243,62.3650267 C53.6441948,62.1889232 53.435833,61.9581949 53.2722365,61.6744726 C53.1061983,61.3940114 52.9808557,61.0703396 52.8986504,60.7075338 L52.8986504,60.7075338 Z" id="Fill-4" fill="#E21F26"></path>
            <polygon id="Fill-6" fill="#E21F26" points="63.6021767 54.0094034 64.4966671 53.8015034 65.9698497 60.2031928 65.0769871 60.4094622 64.3957419 57.4540211 61.268688 58.1771869 61.9507471 61.1342587 61.0554428 61.3405281 59.5822602 54.9404693 60.4759367 54.731754 61.091255 57.3993964 64.216681 56.6770458"></polygon>
            <path d="M69.8678421,56.2884766 C69.7831951,55.8963201 69.6122734,55.6028142 69.3558908,55.3989907 C69.0978803,55.1943519 68.7951047,55.1356507 68.4426803,55.2155495 C68.248969,55.2603907 68.081303,55.3370284 67.949449,55.4503542 C67.8175951,55.5620495 67.7126003,55.6900507 67.6360925,55.8400648 C67.5612125,55.9868178 67.5115638,56.1474307 67.4895882,56.3194578 C67.4684264,56.494746 67.4684264,56.6651425 67.4879603,56.8379848 L69.8678421,56.2884766 Z M66.6821864,57.520386 C66.5853308,57.0931719 66.5617273,56.7116142 66.6097482,56.3642989 C66.6626525,56.0169836 66.7635777,55.7169554 66.9182212,55.4601378 C67.0720508,55.2033201 67.2706456,54.9929742 67.5107499,54.8282848 C67.7508543,54.6611495 68.0096786,54.5461931 68.2855951,54.4826001 C68.9310282,54.3342166 69.4722803,54.4214531 69.9093517,54.7426789 C70.345609,55.067166 70.6622212,55.6419484 70.8502351,56.4678413 C70.8600021,56.5037142 70.8689551,56.5526319 70.8844195,56.6080719 C70.8966282,56.6684036 70.9055812,56.7246589 70.9096508,56.7735766 L67.6287673,57.5334307 C67.7793412,58.0258684 68.0129343,58.3699225 68.324663,58.5688542 C68.6363917,58.7710472 69.0563708,58.8085507 69.596809,58.6838107 C69.8955151,58.615326 70.1421308,58.5305354 70.3358421,58.4294389 C70.5303673,58.3307884 70.673616,58.2451825 70.7655882,58.1709907 L71.0520856,58.8639907 C70.9625551,58.9422589 70.7900056,59.0441707 70.5450177,59.1656495 C70.2975882,59.2863131 70.0070212,59.3874095 69.6773864,59.4632319 C69.2565934,59.5594366 68.8821934,59.5806342 68.548489,59.5251942 C68.2155986,59.4689389 67.9250317,59.3531672 67.6767882,59.1762484 C67.4309864,58.9993295 67.2226247,58.7710472 67.0574003,58.4889554 C66.8905482,58.2068636 66.7660195,57.8799307 66.6821864,57.520386 L66.6821864,57.520386 Z" id="Fill-8" fill="#E21F26"></path>
            <path d="M74.1357579,57.6638778 C74.340864,57.617406 74.5199249,57.5693036 74.6729405,57.5244625 C74.8300257,57.478806 74.9553683,57.4331495 75.052224,57.3826013 L74.724217,55.9517601 C74.6525927,55.9338236 74.5484118,55.9313778 74.405977,55.9427919 C74.2635423,55.9550213 74.0909927,55.981926 73.8964675,56.0267672 C73.7678692,56.0553025 73.6335736,56.0960672 73.4919527,56.1490613 C73.3503318,56.1996095 73.2258031,56.2672789 73.1224362,56.3577766 C73.0158136,56.4409366 72.9327944,56.5452942 72.8782623,56.6667731 C72.8196605,56.7849907 72.8123353,56.9284825 72.8497753,57.0956178 C72.9197718,57.4029836 73.0687179,57.5945778 73.2933579,57.6687695 C73.5188118,57.7429613 73.797984,57.7405154 74.1357579,57.6638778 M73.0719736,53.3770613 C73.4154449,53.2963472 73.7149649,53.2735189 73.9737892,53.3085766 C74.2326136,53.3460801 74.4499283,53.4267942 74.6330588,53.5547954 C74.8145614,53.6844272 74.9618797,53.8548236 75.0758275,54.0651695 C75.1873336,54.277146 75.2776779,54.5160272 75.3387214,54.7867048 L76.0313614,57.7878025 C75.959737,57.8204142 75.8596257,57.8587331 75.735097,57.9133578 C75.6064988,57.9671672 75.4616223,58.019346 75.2996536,58.0756013 C75.1401266,58.1318566 74.9618797,58.1905578 74.7730518,58.2517048 C74.5817823,58.310406 74.3913266,58.3642154 74.2016849,58.4082413 C73.9314657,58.4710189 73.676711,58.4987389 73.4349788,58.4962931 C73.1948744,58.4946625 72.9800014,58.4506366 72.7838483,58.3699225 C72.590951,58.2892084 72.4249127,58.1612072 72.2881753,57.9834731 C72.150624,57.8057389 72.0496988,57.5807178 71.9853997,57.3051484 C71.9243562,57.0401778 71.925984,56.7988507 71.991097,56.5836131 C72.0513266,56.3691907 72.1636466,56.1808578 72.3199179,56.0194295 C72.477817,55.8612625 72.674784,55.7251084 72.9067492,55.6109672 C73.1387144,55.5009025 73.3910275,55.4144813 73.6612466,55.3500731 C73.7483353,55.3296907 73.835424,55.3158307 73.9339075,55.3011554 C74.0283214,55.2913719 74.116224,55.2840342 74.2033127,55.2807731 C74.2904014,55.275066 74.3669092,55.2742507 74.4287666,55.2685436 C74.4938797,55.2677284 74.5386449,55.2660978 74.5671318,55.2660978 L74.5117857,55.0280319 C74.4792292,54.8861707 74.4295805,54.748386 74.3669092,54.6179389 C74.3050518,54.4866766 74.2212188,54.3766119 74.116224,54.2861142 C74.0120431,54.1980625 73.881817,54.1352848 73.7288014,54.1034884 C73.5749718,54.0716919 73.3893997,54.0798448 73.1696431,54.1303931 C72.8831457,54.1988778 72.6430414,54.2755154 72.440377,54.3619366 C72.2368988,54.4532495 72.0863249,54.5323331 71.9927249,54.5975566 L71.729017,53.9094484 C71.8258727,53.8360719 71.9992362,53.7431284 72.2474797,53.6379554 C72.4940953,53.5327825 72.7691979,53.4439154 73.0719736,53.3770613" id="Fill-10" fill="#E21F26"></path>
            <path d="M78.930601,57.3024579 C78.397488,57.4133379 77.9970428,57.3872485 77.7260097,57.2217438 C77.4557906,57.0570544 77.2677767,56.7488732 77.1611541,56.2923085 L75.8344758,50.5281791 L76.6573419,50.1824944 L77.9864619,55.9564073 C78.0198323,56.0974532 78.0589002,56.2124096 78.1061071,56.2955696 C78.1508723,56.3868826 78.2086602,56.4480296 78.275401,56.4928708 C78.3445837,56.5360814 78.4267889,56.5589096 78.5260863,56.5646167 C78.6253837,56.5735849 78.743401,56.5703238 78.8833941,56.5564638 L78.930601,57.3024579 Z" id="Fill-12" fill="#E21F26"></path>
            <path d="M79.6824939,51.9731248 L81.4991478,51.5540636 L81.666,52.2755989 L79.8469043,52.6938448 L80.3604835,54.9114448 C80.4142017,55.1519566 80.4785009,55.3468119 80.5509391,55.4943801 C80.6258191,55.6419484 80.7104661,55.7528284 80.8032522,55.8229436 C80.8976661,55.8995813 81.0051026,55.9395307 81.1239339,55.9501295 C81.2411374,55.9623589 81.376247,55.9517601 81.5243791,55.9150719 C81.7799478,55.8539248 81.9826122,55.7772872 82.1283026,55.6859742 C82.2682957,55.5897695 82.367593,55.5229154 82.424567,55.4837813 L82.7533878,56.1563989 C82.6801357,56.2191766 82.5385148,56.3096742 82.3382922,56.4238154 C82.1396974,56.5387719 81.9020348,56.6260084 81.6244904,56.6920472 C81.300553,56.7637931 81.020567,56.7841754 80.7886017,56.7523789 C80.5590783,56.7156907 80.3588557,56.633346 80.1903757,56.4996378 C80.0227096,56.3594072 79.8851583,56.1775966 79.7769078,55.9460531 C79.6686574,55.7153248 79.578313,55.4397554 79.504247,55.1185295 L78.5161565,50.8308978 L79.3406504,50.4852131 L79.6824939,51.9731248 Z" id="Fill-14" fill="#E21F26"></path>
            <path d="M84.5524612,55.9067559 L83.6343673,51.9150759 C83.6612264,51.8971394 83.7068056,51.8686041 83.7727325,51.8359924 C83.8419151,51.8001194 83.9167951,51.7634312 84.0030699,51.7283735 C84.086903,51.6933159 84.1772473,51.6582582 84.2765447,51.6223853 C84.3701447,51.5873276 84.4637447,51.5579771 84.5557169,51.53841 C84.7819847,51.4837853 84.9805795,51.4707406 85.1466177,51.4935688 C85.312656,51.5147665 85.4591603,51.5832512 85.5812473,51.6916853 C85.7025203,51.7984888 85.8075151,51.9517641 85.8970456,52.1506959 C85.9841343,52.3520735 86.061456,52.5999229 86.1314525,52.8950594 L86.7109586,55.4069806 L87.568009,55.2096794 L86.9453656,52.5110559 C86.8712995,52.1849382 86.7711882,51.8938782 86.6466595,51.6378759 C86.5229447,51.3810582 86.3642317,51.1723429 86.1672647,51.0141759 C85.9727395,50.8560088 85.7358908,50.7500206 85.4607882,50.7011029 C85.1824299,50.6530006 84.8552369,50.6701218 84.4726977,50.7598041 C84.292009,50.7997535 84.1170177,50.8576394 83.9469099,50.9342771 C83.7719186,51.0100994 83.6115777,51.09489 83.4667012,51.1959865 L82.9002177,48.7378747 L82.0765377,49.0835594 L83.6954108,56.1032418 L84.5524612,55.9067559 Z" id="Fill-16" fill="#E21F26"></path>
            <path d="M90.3528125,53.8943654 C91.2871847,53.6750513 91.6811186,53.2486525 91.5329864,52.6086466 C91.4890351,52.4121607 91.4068299,52.2539936 91.2928821,52.1325148 C91.1805621,52.0167431 91.0364995,51.9221689 90.8737169,51.8553148 C90.7076786,51.7803078 90.526176,51.7305748 90.3275812,51.7020395 C90.1314282,51.6686125 89.9214386,51.6360007 89.7016821,51.6115419 C89.4477412,51.5870831 89.206009,51.5455031 88.9748577,51.4933242 C88.7412647,51.4419607 88.532089,51.3612466 88.3465169,51.2593348 C88.1609447,51.1557925 88.0046734,51.0180078 87.8695638,50.8508725 C87.7360821,50.6788454 87.6375986,50.4579007 87.5757412,50.1872231 C87.4455151,49.627116 87.5358595,49.1460925 87.8443325,48.7441525 C88.1552473,48.3413972 88.6435951,48.0633819 89.3126317,47.908476 C89.7000543,47.8187936 90.0630595,47.7788442 90.3967638,47.7894431 C90.7312821,47.7984113 90.9876647,47.8359148 91.1561447,47.8995078 L91.041383,48.6960501 C90.891623,48.6463172 90.6808195,48.6128901 90.4089725,48.5941384 C90.1371256,48.5753866 89.8286525,48.6039219 89.4916925,48.6830054 C89.3207708,48.7229548 89.1661273,48.7775795 89.0261343,48.8485101 C88.8836995,48.920256 88.7697517,49.0066772 88.6769656,49.1061431 C88.5833656,49.2056089 88.5166247,49.3173042 88.4775569,49.4477513 C88.4409308,49.5773831 88.4401169,49.7184289 88.4751151,49.8725195 C88.5166247,50.042916 88.5809238,50.1798854 88.6769656,50.2834278 C88.7705656,50.3853395 88.8902108,50.4652384 89.0318317,50.5263854 C89.1750803,50.5875325 89.3362351,50.6356348 89.5177377,50.6739536 C89.6976125,50.7106419 89.8953934,50.7399925 90.1086386,50.7685278 C90.4114143,50.8166301 90.6897725,50.8671784 90.946969,50.9250642 C91.1992821,50.9821348 91.4312473,51.0701866 91.6339117,51.1851431 C91.8414595,51.3017301 92.0123812,51.4533748 92.1564438,51.6425231 C92.2980647,51.8324866 92.4014317,52.0811513 92.4714282,52.3828101 C92.6016543,52.9429172 92.4966595,53.4214948 92.1556299,53.8169125 C91.8146003,54.214776 91.2757899,54.4968678 90.5326873,54.6680795 C90.2771186,54.727596 90.0418977,54.7642842 89.823769,54.7822207 C89.6031986,54.7944501 89.4046038,54.7977113 89.2287986,54.7936348 C89.0529934,54.7822207 88.8983499,54.7667301 88.766496,54.7430866 C88.6346421,54.7194431 88.532089,54.6949842 88.4539534,54.6737866 L88.5532508,53.8715372 C88.710336,53.9188242 88.9471847,53.9620348 89.2605412,53.9922007 C89.5690143,54.020736 89.9336473,53.9913854 90.3528125,53.8943654" id="Fill-18" fill="#E21F26"></path>
            <path d="M95.9754866,53.3827684 C95.588064,53.4700048 95.2340118,53.4879413 94.9117023,53.4325013 C94.5934623,53.3770613 94.306151,53.2629201 94.0538379,53.0868166 C93.8047805,52.9098978 93.5956049,52.6816154 93.425497,52.4011542 C93.2602727,52.1166166 93.1300466,51.7929448 93.0462136,51.4211707 C92.9615666,51.0534731 92.9347075,50.7004507 92.9729614,50.3678107 C93.0079597,50.0351707 93.1031875,49.7351425 93.2448083,49.4652801 C93.3904988,49.1921566 93.5907214,48.9630589 93.847104,48.7714648 C94.1059283,48.5782401 94.4119597,48.442086 94.7586866,48.3605566 C94.9743736,48.3100084 95.1941301,48.2798425 95.4203979,48.2659825 C95.6401544,48.2529378 95.8607249,48.2676131 96.0764118,48.3002248 L96.0495527,49.0731236 C95.9095597,49.0405119 95.7484049,49.0266519 95.569344,49.0307284 C95.391911,49.0315436 95.2071527,49.0527413 95.016697,49.0992131 C94.5356744,49.2084625 94.2044118,49.4457131 94.0188397,49.8036272 C93.8340814,50.1680636 93.8080362,50.6376731 93.940704,51.2157166 C94.0017475,51.4757954 94.0839527,51.7048931 94.1913892,51.9062707 C94.3012675,52.1092789 94.437191,52.2707072 94.5975318,52.3970778 C94.7586866,52.5226331 94.9475144,52.6017166 95.1615736,52.6408507 C95.3788883,52.6775389 95.6287597,52.6628636 95.9103736,52.5992707 C96.1374553,52.544646 96.3401197,52.4786072 96.515111,52.3938166 C96.6876605,52.3041342 96.8227701,52.225866 96.9155562,52.1549354 L97.2020536,52.8438589 C97.1597301,52.8878848 97.0962449,52.9335413 97.010784,52.9832742 C96.9253231,53.0321919 96.8252118,53.0811095 96.7120779,53.1283966 C96.6005718,53.1764989 96.4809266,53.223786 96.3507005,53.2694425 C96.2229162,53.3159142 96.0967597,53.3534178 95.9754866,53.3827684" id="Fill-20" fill="#E21F26"></path>
            <path d="M99.0089405,52.5635608 L98.152704,52.7633079 L97.0465962,47.9587796 L97.9052744,47.7606632 L99.0089405,52.5635608 Z M97.2712362,46.9934714 C96.9676466,47.0586949 96.6664988,46.9111267 96.5883631,46.5564738 C96.5045301,46.2018208 96.7080083,45.9392961 97.0091562,45.8651044 C97.2932118,45.7982502 97.6073823,45.9335891 97.693657,46.3029173 C97.7335388,46.4733138 97.7140049,46.6233279 97.6269162,46.7480679 C97.5430831,46.8719926 97.4250657,46.9559679 97.2712362,46.9934714 L97.2712362,46.9934714 Z" id="Fill-22" fill="#E21F26"></path>
            <path d="M102.85118,48.6582205 C102.768161,48.2693252 102.597239,47.9717428 102.340856,47.7703652 C102.082032,47.5681722 101.779256,47.5045793 101.429274,47.5861087 C101.229865,47.6333958 101.066269,47.7084028 100.933601,47.8217287 C100.801747,47.9342393 100.696752,48.0638711 100.61943,48.2114393 C100.542922,48.3581922 100.496529,48.5204358 100.475368,48.6940934 C100.451764,48.8653052 100.452578,49.0381475 100.472112,49.2093593 L102.85118,48.6582205 Z M99.667152,49.8917605 C99.5678546,49.4678075 99.545065,49.0829887 99.5938998,48.7364887 C99.6435485,48.3899887 99.7485433,48.0891452 99.900745,47.8331428 C100.05783,47.5779558 100.253983,47.3635334 100.49246,47.2004746 C100.734192,47.0317087 100.992202,46.9200134 101.268933,46.8556052 C101.916808,46.7064064 102.456432,46.7920122 102.891875,47.1173146 C103.328947,47.4385405 103.645559,48.0149534 103.834387,48.8408464 C103.842526,48.875904 103.852293,48.9264522 103.866129,48.9827075 C103.881594,49.0414087 103.890547,49.0960334 103.89543,49.1482122 L100.611291,49.9072511 C100.765121,50.3947969 100.996272,50.7421122 101.308001,50.9443052 C101.622985,51.1432369 102.044592,51.1807405 102.579333,51.0560005 C102.877225,50.9875158 103.123841,50.9019099 103.322435,50.802444 C103.512077,50.7029781 103.659395,50.6149264 103.750554,50.5448111 L104.037865,51.2353652 C103.945893,51.315264 103.774157,51.4155452 103.525914,51.537024 C103.278484,51.6585028 102.993615,51.7563381 102.662352,51.8346064 C102.241559,51.9332569 101.867973,51.9520087 101.533455,51.8965687 C101.198936,51.8403134 100.909997,51.7261722 100.659312,51.5484381 C100.415138,51.3715193 100.206776,51.1432369 100.041552,50.8595146 C99.8763277,50.5774228 99.7501711,50.2529358 99.667152,49.8917605 L99.667152,49.8917605 Z" id="Fill-24" fill="#E21F26"></path>
            <path d="M105.63989,51.0308894 L106.496941,50.8311424 L105.562568,46.7766847 C105.592683,46.7620094 105.643146,46.7416271 105.707445,46.7147224 C105.775814,46.6837412 105.856391,46.6560212 105.941038,46.6266706 C106.028941,46.5965047 106.122541,46.5679694 106.216954,46.5386188 C106.312996,46.5076376 106.409038,46.4839941 106.50101,46.4611659 C106.731347,46.4089871 106.927501,46.3951271 107.095167,46.4179553 C107.259577,46.4407835 107.40364,46.5051918 107.527354,46.6144412 C107.651883,46.72206 107.753622,46.87452 107.841525,47.0767129 C107.929427,47.27646 108.011633,47.52594 108.078374,47.8186306 L108.656252,50.3329976 L109.515744,50.13162 L108.894728,47.4346271 C108.815779,47.11014 108.720551,46.81908 108.592767,46.5630776 C108.469866,46.3078906 108.308711,46.0975447 108.112558,45.9369318 C107.918847,45.7787647 107.681184,45.6744071 107.406081,45.6254894 C107.127723,45.5765718 106.798902,45.5953235 106.418805,45.68256 C105.993942,45.7828412 105.626054,45.8945365 105.315139,46.0257988 C105.001782,46.1586918 104.751911,46.2712024 104.567153,46.3641459 L105.63989,51.0308894 Z" id="Fill-26" fill="#E21F26"></path>
            <path d="M113.045441,49.4345435 C112.657204,49.5225953 112.299082,49.5413471 111.981656,49.4859071 C111.660975,49.4304671 111.376919,49.3155106 111.127048,49.1385918 C110.875549,48.9641188 110.666373,48.7350212 110.495451,48.4521141 C110.324529,48.1708376 110.200815,47.84472 110.112098,47.4745765 C110.028265,47.1052482 110.003848,46.7563024 110.041288,46.4220318 C110.077914,46.0877612 110.169072,45.7885482 110.314762,45.5195012 C110.458825,45.2471929 110.661489,45.0156494 110.917058,44.82324 C111.173441,44.6292 111.4811,44.4946765 111.828641,44.4131471 C112.0427,44.3625988 112.260829,44.3340635 112.485469,44.3193882 C112.710922,44.3063435 112.932307,44.3193882 113.145552,44.352 L113.120321,45.1265294 C112.977072,45.0955482 112.817545,45.0800576 112.638484,45.0800576 C112.460237,45.0816882 112.276293,45.1069624 112.086651,45.1509882 C111.608884,45.2626835 111.274366,45.4991188 111.087166,45.8594788 C110.904849,46.2198388 110.875549,46.6910788 111.010658,47.2658612 C111.06926,47.5267553 111.153907,47.7558529 111.262971,47.9604918 C111.372035,48.1610541 111.502262,48.3249282 111.665044,48.4496682 C111.828641,48.5744082 112.016655,48.6559376 112.2299,48.6942565 C112.447215,48.7325753 112.6979,48.7170847 112.980328,48.6534918 C113.209037,48.6004976 113.406004,48.5295671 113.582623,48.4439612 C113.756801,48.3591706 113.891096,48.2809024 113.983069,48.20508 L114.272008,48.8964494 C114.231312,48.9404753 114.164571,48.9893929 114.07911,49.0342341 C113.992835,49.0839671 113.89191,49.1328847 113.77959,49.1809871 C113.670526,49.2299047 113.548439,49.2780071 113.420655,49.3228482 C113.29287,49.3685047 113.1659,49.4060082 113.045441,49.4345435" id="Fill-28" fill="#E21F26"></path>
            <path d="M117.586669,45.2517586 C117.502835,44.8628633 117.332728,44.5660962 117.075531,44.3639033 C116.819962,44.1592645 116.515559,44.0981174 116.164762,44.1788315 C115.967795,44.224488 115.805013,44.3043868 115.669089,44.4160821 C115.538049,44.5261468 115.432241,44.6549633 115.356547,44.8049774 C115.278411,44.9509151 115.232018,45.1123433 115.210856,45.2868162 C115.189695,45.4588433 115.189695,45.6308704 115.210856,45.8004515 L117.586669,45.2517586 Z M114.404269,46.483668 C114.305785,46.0597151 114.280554,45.6740809 114.328575,45.3275809 C114.381479,44.9818962 114.482404,44.6810527 114.637048,44.4234198 C114.793319,44.169048 114.991914,43.9578868 115.23039,43.7915668 C115.470495,43.628508 115.729319,43.5094751 116.007677,43.4475127 C116.649041,43.2991292 117.191107,43.3847351 117.63062,43.7084068 C118.068505,44.0337092 118.381862,44.6044151 118.569062,45.4335692 C118.579642,45.4686268 118.590223,45.5167292 118.605688,45.5746151 C118.616269,45.6333162 118.626849,45.6887562 118.631733,45.7393045 L115.348408,46.4991586 C115.503051,46.9883351 115.733389,47.3332045 116.045117,47.5353974 C116.356846,47.7343292 116.779267,47.7734633 117.31238,47.647908 C117.616783,47.578608 117.860957,47.4946327 118.056296,47.3943515 C118.24838,47.2940704 118.393256,47.2092798 118.486856,47.1359033 L118.774168,47.8289033 C118.679754,47.9063562 118.512902,48.0058221 118.263844,48.1305621 C118.016415,48.2512256 117.727475,48.3490609 117.396213,48.4281445 C116.978675,48.5276104 116.604275,48.5439162 116.269757,48.4909221 C115.936053,48.4330362 115.645486,48.3156339 115.397242,48.1419762 C115.148185,47.9658727 114.943893,47.7343292 114.775413,47.4530527 C114.611816,47.1709609 114.486474,46.8464739 114.404269,46.483668 L114.404269,46.483668 Z" id="Fill-30" fill="#E21F26"></path>
            <path d="M125.322424,46.6391446 C124.874771,46.7418716 124.448281,46.7630693 124.045394,46.6994764 C123.642507,46.6383293 123.274618,46.4948375 122.945798,46.2730775 C122.616163,46.0513175 122.332107,45.7480281 122.091189,45.3689164 C121.846201,44.9840975 121.668768,44.5250869 121.543425,43.9886234 C121.421338,43.4546058 121.392038,42.9589069 121.457965,42.5064187 C121.526333,42.0547458 121.665512,41.6536211 121.878758,41.3054905 C122.090375,40.9589905 122.363036,40.6662999 122.69674,40.4355716 C123.032886,40.2015822 123.408914,40.0385234 123.827265,39.9406881 C124.092601,39.8787258 124.332705,39.8420375 124.554904,39.8314387 C124.776288,39.8192093 124.969185,39.8192093 125.137665,39.832254 C125.304518,39.8452987 125.443697,39.8664964 125.553575,39.8925858 C125.664267,39.9170446 125.738333,39.9390575 125.781471,39.9561787 L125.69601,40.7535364 C125.632525,40.7298928 125.54218,40.7078799 125.428232,40.6883128 C125.311029,40.6703764 125.183245,40.6548858 125.043251,40.6410258 C124.901631,40.6271658 124.748615,40.6255352 124.585018,40.6353187 C124.41898,40.6434716 124.259453,40.6662999 124.098298,40.7046187 C123.762152,40.7828869 123.473213,40.9108881 123.227411,41.0894375 C122.984865,41.2720634 122.792782,41.4930081 122.654417,41.758794 C122.512796,42.0253952 122.430591,42.327054 122.402918,42.6702928 C122.371175,43.0086399 122.402918,43.3779681 122.49489,43.7693093 C122.581165,44.1500516 122.708135,44.4900293 122.870104,44.7827199 C123.029631,45.0754105 123.227411,45.3151069 123.456935,45.4993634 C123.687272,45.681174 123.949352,45.8050987 124.245617,45.8654305 C124.541067,45.9249469 124.867446,45.9159787 125.225568,45.8344493 C125.634966,45.7390599 125.965415,45.6175811 126.216914,45.4683822 C126.468413,45.3199987 126.653171,45.1936281 126.775258,45.0949775 L127.172448,45.7830858 C127.139891,45.8230352 127.072337,45.8792905 126.970598,45.9494058 C126.869672,46.0227822 126.74026,46.0977893 126.585617,46.1817646 C126.431787,46.2608481 126.245401,46.3448234 126.031342,46.4255375 C125.818097,46.5070669 125.580434,46.5763669 125.322424,46.6391446" id="Fill-32" fill="#E21F26"></path>
            <path d="M130.848568,42.6844789 C130.724853,42.1423084 130.504282,41.7403684 130.186856,41.4802895 C129.871872,41.2193954 129.507239,41.137866 129.086446,41.2340707 C128.669722,41.3286448 128.3759,41.5658954 128.204978,41.9384848 C128.036498,42.3110742 128.015336,42.7700848 128.139051,43.3089942 C128.266022,43.8536107 128.48415,44.2571813 128.799135,44.5139989 C129.114933,44.7748931 129.482008,44.8588684 129.902801,44.7610331 C130.321966,44.6656436 130.612533,44.4308389 130.781013,44.0582495 C130.95519,43.6840295 130.972282,43.2282801 130.848568,42.6844789 M131.744686,42.4757636 C131.831775,42.8597672 131.858634,43.2160507 131.81631,43.5486907 C131.777242,43.8845919 131.683642,44.1846201 131.537952,44.4512213 C131.38575,44.7218989 131.189597,44.9452895 130.939726,45.1303613 C130.689855,45.3129872 130.401729,45.4434342 130.07535,45.5200719 C129.748157,45.5967095 129.434801,45.6048625 129.130397,45.5469766 C128.826808,45.4907213 128.548449,45.3773954 128.297764,45.2029225 C128.047079,45.0260036 127.82895,44.796906 127.650703,44.5139989 C127.465945,44.2310919 127.331649,43.8992672 127.243747,43.5193401 C127.1591,43.1451201 127.134682,42.787206 127.175378,42.4504895 C127.212004,42.1121425 127.305604,41.8112989 127.456992,41.5430672 C127.602682,41.2756507 127.804533,41.0489989 128.052776,40.8663731 C128.301834,40.6813013 128.589145,40.5508542 128.91471,40.4750319 C129.238648,40.4008401 129.556888,40.3910566 129.858849,40.4456813 C130.164067,40.5035672 130.442425,40.6185236 130.693924,40.7938119 C130.945423,40.9707307 131.16111,41.2006436 131.340985,41.4851813 C131.522488,41.7680884 131.657597,42.1007284 131.744686,42.4757636" id="Fill-34" fill="#E21F26"></path>
            <path d="M133.506075,44.600094 L134.364753,44.4011622 L133.430381,40.345074 C133.453171,40.3361058 133.499564,40.3149081 133.571188,40.2863728 C133.638743,40.2537611 133.720134,40.2252258 133.808851,40.1975058 C133.896753,40.1657093 133.98547,40.1363587 134.083953,40.1086387 C134.182437,40.0809187 134.275223,40.0548293 134.356614,40.0328164 C134.559279,39.9887905 134.733456,39.9814528 134.881588,40.0140646 C135.031348,40.0483069 135.158319,40.1257599 135.264941,40.2439775 C135.374819,40.3613799 135.465164,40.5171011 135.542486,40.7127716 C135.620621,40.9100728 135.693059,41.1513999 135.758986,41.4326764 L136.336865,43.9462281 L137.196357,43.7464811 L136.574527,41.0494881 C136.524879,40.8399575 136.465463,40.6410258 136.399536,40.4600305 C136.327912,40.2725128 136.252218,40.1061928 136.166757,39.9561787 C136.218033,39.8787258 136.327912,39.7800752 136.499647,39.6610422 C136.673011,39.5387481 136.900093,39.4449893 137.18659,39.3789505 C137.398207,39.3324787 137.57971,39.3243258 137.723773,39.3577528 C137.870277,39.3919952 137.998875,39.4686328 138.105498,39.5860352 C138.21619,39.7050681 138.304906,39.8616046 138.383042,40.0572752 C138.452225,40.2521305 138.523849,40.4950881 138.59059,40.7779952 L139.170096,43.2891011 L140.025519,43.0926152 L139.405317,40.3964375 C139.331251,40.0743964 139.237651,39.7857822 139.131028,39.5232575 C139.023592,39.2648093 138.881157,39.0503869 138.702096,38.8840669 C138.522221,38.7185622 138.308976,38.6084975 138.044454,38.5538728 C137.788072,38.5000634 137.477157,38.515554 137.10764,38.6011599 C136.913929,38.6435552 136.741379,38.7079634 136.58755,38.7846011 C136.428837,38.8628693 136.286402,38.945214 136.166757,39.0267434 C136.042228,39.111534 135.938861,39.1922481 135.860726,39.2688858 C135.780962,39.3463387 135.72643,39.4042246 135.688176,39.4433587 C135.510743,39.3178034 135.308079,39.236274 135.080183,39.2004011 C134.852287,39.1653434 134.582882,39.1832799 134.276851,39.2542105 C133.851988,39.3544916 133.484099,39.4686328 133.173185,39.5982646 C132.864712,39.7270811 132.616468,39.8412222 132.43171,39.9349811 L133.506075,44.600094 Z" id="Fill-36" fill="#E21F26"></path>
            <path d="M140.369885,38.0999986 C140.555457,38.0037939 140.806143,37.8920986 141.114616,37.7616515 C141.42553,37.6295739 141.78935,37.5195092 142.217468,37.4200433 C142.525127,37.3491127 142.791277,37.3303609 143.015917,37.3646033 C143.250323,37.3996609 143.448104,37.4795598 143.629607,37.6059304 C143.665419,37.5667962 143.720765,37.5072798 143.80297,37.4314574 C143.88599,37.3564504 143.97959,37.2765515 144.107374,37.1909456 C144.229461,37.1086009 144.367826,37.0278868 144.526539,36.9488033 C144.68281,36.8697198 144.853732,36.809388 145.044188,36.7661774 C145.416146,36.6805715 145.728689,36.6650809 145.989141,36.7164445 C146.248779,36.7702539 146.46121,36.8811339 146.641085,37.0482692 C146.818518,37.2162198 146.961767,37.4281962 147.06839,37.6874598 C147.177454,37.9499845 147.268612,38.2377833 147.34919,38.5598245 L147.968577,41.2560021 L147.107457,41.4557492 L146.527137,38.9430127 C146.46528,38.6584751 146.395283,38.4179633 146.317962,38.223108 C146.24471,38.0241762 146.153551,37.8676398 146.048557,37.7486068 C145.937864,37.6336504 145.806824,37.5570127 145.661134,37.5203245 C145.517885,37.4893433 145.335569,37.4974962 145.130463,37.5431527 C144.84071,37.6116374 144.612,37.7029504 144.445148,37.8252445 C144.271784,37.9450927 144.159464,38.0453739 144.109002,38.1220115 C144.193649,38.2679492 144.269343,38.4367151 144.338525,38.6234174 C144.409336,38.805228 144.46631,39.0049751 144.512703,39.2153209 L145.134532,41.9106833 L144.27504,42.1087998 L143.702045,39.5976939 C143.636118,39.3115256 143.56368,39.0750904 143.486358,38.874528 C143.405781,38.680488 143.31625,38.5247668 143.203117,38.4073645 C143.096494,38.2899621 142.969523,38.2133245 142.823833,38.1798974 C142.674073,38.1456551 142.505593,38.1529927 142.296417,38.1994645 C142.210957,38.2190315 142.12224,38.2434904 142.019687,38.2728409 C141.928529,38.2997456 141.834115,38.3274656 141.74784,38.3608927 C141.663193,38.3886127 141.57936,38.4204092 141.514247,38.4489445 C141.440181,38.4799256 141.395416,38.4994927 141.367743,38.5092762 L142.306184,42.5661798 L141.441809,42.7634809 L140.369885,38.0999986 Z" id="Fill-38" fill="#E21F26"></path>
            <path d="M152.0965,35.2421481 L151.241078,35.4402646 L152.173822,39.4947222 C152.142079,39.5142893 152.0965,39.5371175 152.030573,39.5623916 C151.958135,39.5884811 151.879999,39.6145705 151.799422,39.6463669 C151.718031,39.6749022 151.624431,39.7018069 151.526761,39.7327881 C151.432347,39.7613234 151.339561,39.7882281 151.245961,39.8086105 C150.80889,39.9056305 150.468674,39.8534516 150.226128,39.6439211 C149.983582,39.4343905 149.791498,39.0389728 149.658017,38.4503305 L149.083394,35.9384093 L148.224716,36.1365258 L148.84329,38.8351493 C148.923053,39.1612669 149.023978,39.4515116 149.148507,39.7026222 C149.281989,39.9537328 149.446399,40.1640787 149.643366,40.3230611 C149.841147,40.4853046 150.082879,40.5921081 150.356354,40.6385799 C150.637968,40.6891281 150.961091,40.6703764 151.328166,40.5864011 C151.748145,40.4853046 152.11929,40.372794 152.429391,40.2439775 C152.73705,40.1135305 152.988549,39.9993893 153.173307,39.9056305 L152.0965,35.2421481 Z" id="Fill-40" fill="#E21F26"></path>
            <path d="M154.684093,39.704742 L155.534632,39.5066255 L154.601073,35.4505373 C154.626305,35.435862 154.679209,35.4154796 154.74595,35.3877596 C154.817574,35.3575938 154.894082,35.3298738 154.981171,35.2997079 C155.067446,35.2711726 155.155348,35.2401914 155.253832,35.2124714 C155.351501,35.1839361 155.448357,35.1570314 155.541957,35.1358338 C155.766597,35.0836549 155.963564,35.0689796 156.13123,35.0918079 C156.298896,35.1146361 156.443773,35.1798596 156.567487,35.2891091 C156.68876,35.3959126 156.792941,35.5491879 156.884913,35.7489349 C156.972002,35.9494973 157.046882,36.1997926 157.111995,36.4941138 L157.695571,39.0068502 L158.555063,38.8087338 L157.934047,36.1117408 C157.857539,35.7856232 157.752545,35.4921173 157.633713,35.2361149 C157.505115,34.978482 157.347216,34.7713973 157.146179,34.6091538 C156.958979,34.4485408 156.722131,34.3449985 156.447028,34.2944502 C156.166228,34.2463479 155.842291,34.2675455 155.454054,34.3531514 C155.033261,34.4509867 154.665373,34.5667585 154.352016,34.6996514 C154.040287,34.8300985 153.786346,34.9466855 153.603216,35.0396291 L154.684093,39.704742 Z" id="Fill-42" fill="#E21F26"></path>
            <path d="M160.831415,38.2803416 L159.971923,38.4800887 L158.867443,33.6722993 L159.71961,33.4733675 L160.831415,38.2803416 Z M159.087199,32.7053605 C158.931742,32.7412334 158.791749,32.7192205 158.663151,32.6442134 C158.530483,32.5667605 158.445836,32.4420205 158.401071,32.2699934 C158.368514,32.0979664 158.384792,31.9479522 158.473509,31.8223969 C158.55897,31.6935805 158.676173,31.6136816 158.830817,31.5794393 C158.983832,31.5419358 159.128709,31.5631334 159.254865,31.6389558 C159.385091,31.717224 159.469738,31.841964 159.51369,32.0131758 C159.551944,32.1876487 159.530782,32.3360322 159.444507,32.4632181 C159.363116,32.5895887 159.246726,32.6686722 159.087199,32.7053605 L159.087199,32.7053605 Z" id="Fill-44" fill="#E21F26"></path>
            <path d="M164.410109,37.5681822 C164.030012,37.6611258 163.673518,37.6766164 163.354464,37.6203611 C163.032968,37.5649211 162.745657,37.4499646 162.494158,37.2754916 C162.245101,37.0953116 162.035111,36.8694752 161.867445,36.5873834 C161.698151,36.3069222 161.569553,35.9783587 161.486534,35.6106611 C161.402701,35.2405175 161.375027,34.8883105 161.417351,34.5540399 C161.447466,34.218954 161.540252,33.9181105 161.683501,33.6466175 C161.829191,33.3751246 162.031855,33.1460269 162.28661,32.9528022 C162.546248,32.7603928 162.845768,32.625054 163.199007,32.5427093 C163.412252,32.4913458 163.635264,32.4636258 163.858276,32.4489505 C164.079661,32.4375364 164.301045,32.4465046 164.513476,32.4815622 L164.489059,33.2569069 C164.34581,33.2242952 164.185469,33.2088046 164.008036,33.2120658 C163.831417,33.2128811 163.647473,33.2373399 163.454575,33.2813658 C162.974367,33.3922458 162.643104,33.6278658 162.458346,33.9890411 C162.271146,34.3502164 162.246728,34.8214564 162.38021,35.4027611 C162.442881,35.6620246 162.522645,35.8927528 162.629267,36.0924999 C162.740774,36.2955081 162.873441,36.4610128 163.036224,36.5841222 C163.199007,36.7104928 163.387021,36.7903916 163.602707,36.8254493 C163.82165,36.8645834 164.067452,36.8515387 164.351507,36.7854999 C164.583473,36.7333211 164.784509,36.6640211 164.952175,36.5767846 C165.125539,36.4936246 165.26309,36.4129105 165.353434,36.3403493 L165.640746,37.032534 C165.60005,37.0749293 165.533309,37.1197705 165.453546,37.1695034 C165.365643,37.2176058 165.262276,37.268154 165.154026,37.3146258 C165.043334,37.3635434 164.917177,37.4124611 164.791021,37.4581175 C164.66405,37.5029587 164.539521,37.5404622 164.410109,37.5681822" id="Fill-46" fill="#E21F26"></path>
            <path d="M168.073125,35.9530846 C168.274975,35.9082434 168.453222,35.8617716 168.60868,35.8169305 C168.761695,35.7696434 168.88948,35.7223564 168.992847,35.674254 L168.658328,34.2385211 C168.588332,34.2230305 168.481709,34.2181387 168.343344,34.2271069 C168.198467,34.2385211 168.027546,34.2670564 167.833834,34.3135281 C167.705236,34.3428787 167.571754,34.3828281 167.428506,34.4374528 C167.288513,34.4871858 167.16724,34.5581164 167.058989,34.6453528 C166.951553,34.7334046 166.871789,34.8353164 166.81156,34.953534 C166.757841,35.0758281 166.748888,35.2201352 166.787142,35.3856399 C166.854697,35.6930058 167.003643,35.8845999 167.232353,35.9604222 C167.453737,36.034614 167.733723,36.0329834 168.073125,35.9530846 M167.006899,31.6613764 C167.351998,31.5806622 167.649076,31.5602799 167.908714,31.5928916 C168.168353,31.6279493 168.385667,31.7094787 168.569612,31.8399258 C168.746231,31.9703728 168.899247,32.1407693 169.010753,32.3511152 C169.123073,32.5630916 169.210975,32.8027881 169.276902,33.0734658 L169.963845,36.0819011 C169.892221,36.1096211 169.797807,36.1520164 169.666767,36.2041952 C169.539796,36.2555587 169.400617,36.3093681 169.235393,36.3656234 C169.07261,36.4243246 168.895991,36.4830258 168.707977,36.5417269 C168.520777,36.5987975 168.32788,36.6534222 168.14068,36.699894 C167.871274,36.7634869 167.61245,36.7895764 167.370718,36.7887796 C167.133869,36.783054 166.915741,36.7422893 166.725285,36.6607599 C166.523434,36.5808611 166.363094,36.4512293 166.226356,36.2743105 C166.088805,36.0990222 165.985438,35.8731858 165.924394,35.5951705 C165.864165,35.3301999 165.860095,35.0913187 165.92765,34.8744505 C165.991135,34.6575822 166.096944,34.4643575 166.259727,34.3070058 C166.415184,34.1463928 166.609709,34.0118693 166.845744,33.8993587 C167.075267,33.7860328 167.327581,33.6987964 167.59373,33.6384646 C167.686516,33.6172669 167.773605,33.6001458 167.867205,33.5879164 C167.966502,33.5781328 168.052777,33.5691646 168.14068,33.567534 C168.23021,33.5626422 168.30509,33.5585658 168.366947,33.5553046 C168.427177,33.5544893 168.475198,33.553674 168.500429,33.553674 L168.447525,33.3156081 C168.410899,33.1729316 168.364506,33.0367775 168.302648,32.9055152 C168.239977,32.7734375 168.161027,32.6625575 168.056033,32.5728752 C167.946154,32.4848234 167.817556,32.4236764 167.666168,32.3910646 C167.516408,32.3568222 167.325139,32.3657905 167.105382,32.417154 C166.821327,32.4823775 166.581222,32.5622764 166.374488,32.6495128 C166.171824,32.7391952 166.02125,32.8174634 165.928464,32.8859481 L165.662314,32.1970246 C165.761612,32.1228328 165.935789,32.0298893 166.182405,31.9247164 C166.429834,31.8195434 166.703309,31.7314916 167.006899,31.6613764" id="Fill-48" fill="#E21F26"></path>
            <path d="M171.101451,30.8432287 L172.916477,30.4225369 L173.084143,31.1416264 L171.265862,31.5631334 L171.779441,33.7791028 C171.835601,34.0196146 171.900714,34.2128393 171.968269,34.3612228 C172.042335,34.5104216 172.128609,34.6237475 172.222209,34.6979393 C172.317437,34.7680546 172.424874,34.8096346 172.544519,34.821864 C172.664164,34.8324628 172.796832,34.8226793 172.941709,34.7892522 C173.202975,34.7272899 173.404825,34.6530981 173.54726,34.5520016 C173.687253,34.4582428 173.791434,34.3930193 173.840269,34.3522546 L174.174787,35.0305793 C174.097465,35.0933569 173.959914,35.182224 173.754808,35.2963652 C173.555399,35.4121369 173.32262,35.4993734 173.041006,35.5637816 C172.721138,35.6404193 172.43871,35.6599864 172.209187,35.625744 C171.973966,35.5923169 171.777813,35.5058958 171.609333,35.3705569 C171.440853,35.2335875 171.306557,35.0493311 171.190982,34.8194181 C171.09087,34.586244 170.998084,34.3074134 170.927274,33.9886334 L169.937555,29.7018169 L170.763677,29.3561322 L171.101451,30.8432287 Z" id="Fill-50" fill="#E21F26"></path>
            <path d="M177.767806,31.8316913 C177.645719,31.2878901 177.419451,30.8867654 177.107722,30.625056 C176.79111,30.3649772 176.425663,30.2818172 176.007312,30.3788372 C175.587333,30.4742266 175.29758,30.7131078 175.128286,31.0832513 C174.951667,31.4582866 174.936202,31.9164819 175.058289,32.4562066 C175.18119,32.9991925 175.406644,33.3995019 175.718373,33.6636572 C176.034985,33.923736 176.400432,34.0044501 176.817969,33.9074301 C177.241204,33.8104101 177.530143,33.5756054 177.703507,33.2022007 C177.873615,32.8304266 177.89559,32.3697854 177.767806,31.8316913 M178.661482,31.6237913 C178.752641,32.0053489 178.774616,32.3624478 178.736362,32.6926419 C178.698109,33.0285431 178.602881,33.3302019 178.453935,33.5984336 C178.303361,33.8650348 178.10558,34.0916866 177.857336,34.2775736 C177.609093,34.4601995 177.320154,34.5939078 176.992961,34.6680995 C176.669023,34.7463678 176.353225,34.7528901 176.052077,34.6966348 C175.746046,34.6387489 175.464432,34.519716 175.221072,34.3476889 C174.963062,34.1707701 174.747375,33.9433031 174.5675,33.6595807 C174.389253,33.3766736 174.254957,33.0448489 174.162985,32.6641066 C174.074269,32.288256 174.054735,31.9344184 174.092989,31.5960713 C174.127987,31.2577242 174.228098,30.9552501 174.372161,30.6878336 C174.520293,30.4196019 174.719702,30.1945807 174.968759,30.0119548 C175.221072,29.8268831 175.505942,29.696436 175.829065,29.6214289 C176.153816,29.5456066 176.474498,29.5358231 176.778902,29.5928936 C177.079235,29.6483336 177.361663,29.765736 177.611535,29.9393936 C177.861406,30.1163125 178.079535,30.3454101 178.263479,30.6315784 C178.444168,30.916116 178.577649,31.2463101 178.661482,31.6237913" id="Fill-52" fill="#E21F26"></path>
            <path d="M181.064805,28.4323225 C181.135615,28.414386 181.224332,28.3972648 181.323629,28.3858507 C181.418857,28.3736213 181.518154,28.3630225 181.610127,28.3556848 C181.70861,28.3499778 181.796513,28.3475319 181.877904,28.345086 C181.95604,28.3434554 182.016269,28.3434554 182.060221,28.3475319 L182.082196,29.1293989 C182.009758,29.1220613 181.886043,29.1171695 181.722447,29.1188001 C181.562106,29.1220613 181.354558,29.1522272 181.110384,29.2092978 C180.950043,29.245986 180.793772,29.2989801 180.647267,29.3682801 C180.492624,29.4383954 180.396582,29.4856825 180.354259,29.5109566 L181.282934,33.5466625 L180.429953,33.7447789 L179.363727,29.1473354 C179.550927,29.0234107 179.78452,28.8962248 180.073459,28.7633319 C180.359956,28.6271778 180.688777,28.5179284 181.064805,28.4323225" id="Fill-54" fill="#E21F26"></path>
            <path d="M184.958239,32.0450538 C185.307408,31.9643396 185.558093,31.8575361 185.705411,31.7279044 C185.853544,31.596642 185.901565,31.4278761 185.855171,31.222422 C185.806337,31.0161526 185.68425,30.8661385 185.494608,30.7829785 C185.300897,30.6981879 184.994865,30.6231808 184.574072,30.5579573 C184.372222,30.5261608 184.181766,30.4919185 183.994566,30.4527844 C183.80818,30.4152808 183.642956,30.3590255 183.489126,30.2815726 C183.346691,30.2057502 183.214024,30.1022079 183.107401,29.9733914 C182.995895,29.8413138 182.922643,29.6684714 182.872994,29.4516032 C182.777766,29.0268349 182.855088,28.6534302 183.109843,28.3313891 C183.371109,28.0085326 183.768298,27.7867726 184.308737,27.6620326 C184.439777,27.6302361 184.580584,27.6065926 184.718135,27.5894714 C184.858942,27.577242 184.988354,27.5641973 185.104744,27.5601208 C185.229272,27.5535985 185.338337,27.5527832 185.431937,27.5560444 C185.527165,27.5609361 185.602858,27.5666432 185.653321,27.5715349 L185.666344,28.3485102 C185.568674,28.3224208 185.408333,28.3044844 185.202413,28.2955161 C184.988354,28.2898091 184.74825,28.3199749 184.473961,28.3843832 C184.233043,28.436562 184.03282,28.5352126 183.876549,28.672182 C183.720278,28.8050749 183.663304,28.977102 183.712138,29.1784796 C183.73737,29.2836526 183.779693,29.3717044 183.837481,29.4442655 C183.895269,29.5143808 183.975846,29.5738973 184.071888,29.6171079 C184.172813,29.6627644 184.285947,29.6994526 184.420243,29.725542 C184.55698,29.7516314 184.720577,29.7801667 184.907777,29.8005491 C185.150323,29.8339761 185.372521,29.8731102 185.568674,29.9106138 C185.772966,29.9554549 185.943074,30.0157867 186.09609,30.099762 C186.246664,30.1804761 186.377704,30.2921714 186.476187,30.4340326 C186.581996,30.5734479 186.65769,30.7593349 186.71385,30.9884326 C186.815589,31.430322 186.727686,31.8037267 186.455025,32.109462 C186.177481,32.4111208 185.732271,32.6345114 185.126719,32.774742 C184.704298,32.8733926 184.362455,32.9149726 184.104445,32.8978514 C183.850504,32.8839914 183.670629,32.8668702 183.581098,32.8513796 L183.56889,32.0744044 C183.670629,32.0898949 183.842365,32.1078314 184.07026,32.1331055 C184.308737,32.1551185 184.601745,32.1282138 184.958239,32.0450538" id="Fill-56" fill="#E21F26"></path>
            <path d="M54.3534386,48.8461458 L50.4254943,31.7885622 L53.4784821,29.8147352 L54.976896,36.4145411 C55.1820021,36.2889858 55.4505934,36.1520164 55.7834838,36.0052634 C56.1163743,35.8576952 56.4484508,35.7459999 56.7715743,35.6701775 C57.7205969,35.4500481 58.5402073,35.3986846 59.2295917,35.5128258 C59.918976,35.6277822 60.5074351,35.8764469 60.9941551,36.2653422 C61.4808751,36.6534222 61.8780647,37.157274 62.184096,37.7720058 C62.4909412,38.390814 62.735929,39.1009352 62.9198734,39.9007387 L64.4443325,46.5144046 L61.1341482,47.2783352 L59.7016612,41.0674246 C59.4550456,39.9993893 59.1449447,39.2737775 58.768103,38.889774 C58.3888195,38.5098469 57.831289,38.4038587 57.0914421,38.5750705 C56.7935499,38.6451858 56.521703,38.7340528 56.2726456,38.8449328 C56.0268438,38.9574434 55.8079012,39.0683234 55.6109343,39.1751269 L57.6660647,48.0813999 L54.3534386,48.8461458" id="Fill-62" fill="#002395"></path>
            <path d="M69.8249489,42.8305796 C70.1480723,42.7547573 70.4589871,42.6740432 70.7536237,42.5916985 C71.0450045,42.5093538 71.2761558,42.4319008 71.4470776,42.3617855 L70.8659437,39.8441573 C70.7275784,39.8457879 70.5208445,39.8620938 70.2465558,39.8930749 C69.9747089,39.9281326 69.7264654,39.9672667 69.5034532,40.0202608 C69.1941663,40.0903761 68.9035993,40.1776126 68.635008,40.2795244 C68.372928,40.3773596 68.1474741,40.5053608 67.9635297,40.6570055 C67.7812132,40.8102808 67.651801,40.9880149 67.5744793,41.1934691 C67.4955297,41.3989232 67.4857628,41.6345432 67.5500619,41.9019596 C67.6680793,42.4204867 67.9269037,42.7417126 68.3200237,42.8623761 C68.7147715,42.9814091 69.2161419,42.9732561 69.8249489,42.8305796 M67.3197245,33.1807585 C68.2956063,32.9524761 69.1363784,32.8766538 69.8395993,32.9475844 C70.5420063,33.0201455 71.1410463,33.218262 71.6277663,33.5443796 C72.1177419,33.8688667 72.510048,34.3099408 72.8103819,34.8700479 C73.1115297,35.4252632 73.3459367,36.0685302 73.511975,36.794142 L75.1039889,43.6972373 C74.6547089,43.9108444 74.0231123,44.1847832 73.2091993,44.5223149 C72.4001697,44.8590314 71.3933593,45.1639514 70.1920237,45.4411514 C69.4350845,45.6164396 68.7326776,45.7093832 68.0888723,45.7183514 C67.4409976,45.7273196 66.8614915,45.6311149 66.3495402,45.4272914 C65.8343332,45.2259138 65.4037732,44.9087644 65.0513489,44.4733973 C64.7013663,44.0380302 64.4441697,43.4656938 64.2805732,42.7498655 C64.123488,42.0690949 64.1243019,41.4608855 64.291968,40.9203455 C64.4571923,40.3830667 64.7347367,39.9183491 65.1286706,39.5294538 C65.5217906,39.1430044 66.005255,38.8152561 66.566855,38.5535467 C67.1300828,38.2902067 67.7299367,38.0839373 68.3656028,37.9363691 C68.7986045,37.8377185 69.1827715,37.7676032 69.5270567,37.7284691 C69.8672723,37.6877044 70.1472584,37.6746596 70.3678289,37.6852585 L70.2978323,37.376262 C70.1692341,36.8096326 69.8925037,36.3954632 69.4757802,36.1337538 C69.0525454,35.8712291 68.4233906,35.8369867 67.577735,36.0334726 C67.0128793,36.1631044 66.4691854,36.3318702 65.9409558,36.5405855 C65.4102845,36.7493008 64.9610045,36.9726914 64.5955576,37.2164644 L63.5594463,34.6401349 C63.7376932,34.5325161 63.963961,34.4142985 64.2382497,34.2789596 C64.5100967,34.146882 64.8104306,34.0148044 65.1408793,33.883542 C65.4697002,33.7522796 65.818055,33.6242785 66.1891993,33.4995385 C66.5579019,33.3764291 66.9331158,33.2696255 67.3197245,33.1807585" id="Fill-64" fill="#002395"></path>
            <path d="M81.6497217,33.2914754 C81.3363652,33.2841378 80.9701043,33.2882142 80.5501252,33.2988131 C80.1301461,33.3085966 79.6930748,33.3664825 79.2315861,33.4749166 C79.0232243,33.5222036 78.7814922,33.5963954 78.5015061,33.7007531 C78.2207061,33.805926 78.0115304,33.8972389 77.8731652,33.9746919 L79.9380626,42.9323284 L76.6229948,43.6946284 L74.0697496,32.6049978 C74.6150713,32.2576825 75.2686435,31.9005836 76.0361635,31.5296248 C76.7979861,31.1562201 77.67864,30.8545613 78.6708,30.6254636 C78.8498609,30.5838836 79.0647339,30.5463801 79.3235583,30.5105072 C79.578313,30.4738189 79.8387652,30.4444684 80.1008452,30.4224554 C80.3588557,30.4037036 80.6233774,30.3898436 80.8862713,30.382506 C81.1499791,30.3759836 81.3795026,30.3898436 81.5724,30.4224554 L81.6497217,33.2914754" id="Fill-66" fill="#002395"></path>
            <path d="M89.442288,34.1867499 C89.1940445,33.1162687 88.8831297,32.3890264 88.5079158,32.0099146 C88.1278184,31.6283569 87.6093558,31.5142158 86.9411332,31.6691216 C86.7343993,31.7147781 86.521968,31.7759252 86.3038393,31.8509322 C86.0848967,31.9226781 85.8773489,31.9985005 85.6754984,32.0767687 L87.7607437,41.1216416 L84.4489315,41.8872028 L81.8427819,30.5725511 C82.1056758,30.4331358 82.4190323,30.2782299 82.7795958,30.109464 C83.1377176,29.9415134 83.517815,29.7735628 83.9272132,29.610504 C84.3341697,29.4474452 84.7541489,29.2925393 85.1912202,29.153124 C85.6242219,29.0128934 86.0604793,28.8922299 86.4894115,28.7935793 C87.3326254,28.598724 88.0431715,28.5465452 88.6202358,28.6411193 C89.1940445,28.7348781 89.6872758,28.889784 90.0966741,29.1082828 C90.4922358,28.6566099 90.9781419,28.2644534 91.5454393,27.9293675 C92.1159923,27.5950969 92.6613141,27.3676299 93.177335,27.2469664 C94.1117071,27.0300981 94.9117837,26.9828111 95.5686115,27.1059205 C96.2295089,27.2241381 96.7927367,27.4809558 97.2591089,27.8747428 C97.7238532,28.2677146 98.0958115,28.7764581 98.3782393,29.3985275 C98.6647367,30.0205969 98.8983297,30.7315334 99.0822741,31.5337828 L100.606733,38.1498946 L97.2965489,38.9154558 L95.863248,32.6988381 C95.6174463,31.6324334 95.3065315,30.9051911 94.9280619,30.5244487 C94.5512202,30.1428911 94.0295019,30.0271193 93.363721,30.1812099 C93.1838463,30.2244205 92.9494393,30.3255169 92.6507332,30.4877605 C92.353655,30.6508193 92.1159923,30.8236616 91.9385593,31.0030264 C92.1225037,31.3209911 92.269008,31.6658605 92.3878393,32.0376346 C92.503415,32.4085934 92.6108515,32.8113487 92.7125906,33.2410087 L94.1841454,39.6369911 L90.8731471,40.4009216 L89.442288,34.1867499" id="Fill-68" fill="#002395"></path>
            <path d="M105.988082,34.4622378 C106.311206,34.388046 106.618865,34.3081472 106.915943,34.2241719 C107.208138,34.1401966 107.440917,34.0643742 107.611025,33.9926284 L107.031519,31.4766307 C106.889898,31.4790766 106.683978,31.4945672 106.411317,31.5271789 C106.136214,31.5589754 105.892854,31.5997401 105.664959,31.6519189 C105.356486,31.7252954 105.067546,31.8109013 104.801397,31.9111825 C104.535247,32.0106484 104.309793,32.1370189 104.128291,32.2878484 C103.946788,32.4411236 103.81412,32.6204884 103.734357,32.8251272 C103.657849,33.0305813 103.650524,33.2678319 103.711567,33.5360636 C103.830399,34.0545907 104.088409,34.3717401 104.482343,34.4924036 C104.877091,34.6171436 105.379275,34.6057295 105.988082,34.4622378 M103.484486,24.8148625 C104.458739,24.5898413 105.297884,24.5140189 106.002733,24.5865801 C106.707581,24.658326 107.303366,24.8548119 107.792527,25.1801142 C108.281689,25.5046013 108.674809,25.9464907 108.975143,26.501706 C109.275477,27.0569213 109.508256,27.6993731 109.675108,28.4258001 L111.266308,35.3337872 C110.816214,35.5482095 110.184618,35.8221484 109.376402,36.1588648 C108.563303,36.4931354 107.555679,36.8021319 106.357599,37.0785166 C105.599032,37.2529895 104.897439,37.3467484 104.252006,37.3549013 C103.605759,37.3630542 103.022997,37.2668495 102.511859,37.0638413 C101.995839,36.8632789 101.563651,36.5453142 101.215296,36.1099472 C100.864499,35.6753954 100.607303,35.1030589 100.442893,34.3847848 C100.285807,33.7031989 100.289063,33.0900978 100.451846,32.5528189 C100.621953,32.0147248 100.89787,31.5508225 101.292618,31.1619272 C101.687366,30.7762931 102.16676,30.4485448 102.730802,30.1852048 C103.291588,29.9226801 103.892256,29.717226 104.531178,29.5696578 C104.961738,29.4710072 105.347533,29.4000766 105.688562,29.3609425 C106.031219,29.3193625 106.311206,29.3063178 106.53259,29.3161013 L106.461779,29.0054742 C106.330739,28.4412907 106.058079,28.0279366 105.638099,27.7670425 C105.21812,27.5012566 104.584896,27.4686448 103.740868,27.665946 C103.17764,27.7947625 102.631505,27.9659742 102.104089,28.1722436 C101.572604,28.3817742 101.127393,28.6051648 100.761133,28.8473072 L99.7201377,26.2734236 C99.8991986,26.1706966 100.123839,26.0508484 100.399755,25.9171401 C100.674858,25.7834319 100.974378,25.6505389 101.302385,25.5192766 C101.631206,25.3896448 101.980374,25.2624589 102.351519,25.1360884 C102.721035,25.0121636 103.097063,24.9061754 103.484486,24.8148625" id="Fill-70" fill="#002395"></path>
            <path d="M118.480508,23.4207095 C116.86489,23.7932989 115.801106,24.5123884 115.290783,25.5779778 C114.778017,26.6411213 114.70151,27.9521142 115.060445,29.5117719 C115.235437,30.2659189 115.484494,30.9336448 115.801106,31.5092425 C116.122602,32.0840248 116.514094,32.5528189 116.969885,32.9164401 C117.428118,33.2784307 117.951464,33.5197578 118.543993,33.6436825 C119.131638,33.7627154 119.780327,33.7415178 120.495757,33.5776436 C120.879923,33.4895919 121.206303,33.4048013 121.47408,33.3273484 C121.749183,33.2498954 121.981962,33.1634742 122.179743,33.0721613 L120.941781,27.7067107 L124.40905,26.9052766 L126.170358,34.540506 C125.793517,34.8022154 125.162734,35.1348554 124.287777,35.5302731 C123.414449,35.9273213 122.303457,36.2844201 120.953176,36.5958625 C119.795791,36.8632789 118.70759,36.9268719 117.684501,36.7882719 C116.663854,36.6504872 115.737621,36.3170319 114.914755,35.787906 C114.088633,35.2587801 113.381343,34.5347989 112.792883,33.6241154 C112.198727,32.7126166 111.75433,31.6201225 111.45888,30.3441872 C111.165057,29.0511307 111.099944,27.8640625 111.270866,26.7764601 C111.441788,25.6888578 111.792584,24.7194731 112.333837,23.868306 C112.871019,23.0179542 113.568543,22.3053872 114.428035,21.7306048 C115.283457,21.1582684 116.246317,20.7473601 117.31417,20.5011413 C118.040995,20.3315601 118.708403,20.2280178 119.313955,20.1921448 C119.92032,20.1505648 120.452619,20.1456731 120.905155,20.1750236 C121.358504,20.2019284 121.73616,20.2516613 122.037308,20.3225919 C122.343339,20.3935225 122.56391,20.4514084 122.701461,20.4978801 L122.33927,23.5120225 C121.807784,23.3709766 121.213628,23.2772178 120.555986,23.2323766 C119.900786,23.1883507 119.205704,23.2519436 118.480508,23.4207095" id="Fill-72" fill="#002395"></path>
            <path d="M132.646909,23.0174651 C132.564703,22.7386345 132.452383,22.4744792 132.309949,22.2258145 C132.169142,21.9812262 131.986825,21.7700651 131.767069,21.6012992 C131.548126,21.4325333 131.296627,21.3118698 131.004432,21.2384933 C130.713865,21.1659321 130.374463,21.1716392 129.992738,21.2605062 C129.62078,21.3469274 129.318004,21.4838968 129.083597,21.6705992 C128.842679,21.8597474 128.661176,22.0766156 128.529322,22.3277262 C128.401538,22.5763909 128.316891,22.8486992 128.284335,23.1462815 C128.252592,23.4430486 128.245267,23.7357392 128.265615,24.0292451 L132.646909,23.0174651 M125.158095,26.088678 C124.918804,25.0467321 124.870783,24.1001756 125.005079,23.2490086 C125.1467,22.3945804 125.414477,21.6477709 125.813295,21.0069498 C126.212112,20.3693898 126.721622,19.8386333 127.331242,19.4138651 C127.944933,18.9907274 128.604202,18.6972215 129.31719,18.5325321 C130.977573,18.1501592 132.403549,18.3556133 133.600815,19.1480792 C134.800522,19.9421756 135.626644,21.3257298 136.079994,23.3020027 C136.125573,23.4944121 136.167082,23.7063886 136.207778,23.9395627 C136.242776,24.1743674 136.278589,24.3798215 136.303006,24.5616321 L128.788147,26.2990239 C129.022554,26.9659345 129.462881,27.4339133 130.121336,27.7037756 C130.776536,27.9752686 131.576613,28.001358 132.526449,27.7812286 C133.132815,27.6393674 133.718018,27.4477733 134.277176,27.2007392 C134.834707,26.9553356 135.283987,26.7066709 135.616877,26.4563756 L136.679848,29.0481956 C136.523576,29.1778274 136.307889,29.3205039 136.029531,29.4803015 C135.754429,29.6376533 135.444328,29.7925592 135.092717,29.9425733 C134.747618,30.0934027 134.37159,30.2385251 133.966262,30.3787556 C133.561747,30.5189862 133.151535,30.6388345 132.739695,30.7334086 C131.685677,30.9771815 130.735841,31.0342521 129.886929,30.9013592 C129.035576,30.7709121 128.292474,30.4920815 127.654366,30.0681286 C127.017886,29.6449909 126.493726,29.0905909 126.077816,28.4057439 C125.661907,27.7192662 125.358317,26.9471827 125.158095,26.088678" id="Fill-74" fill="#002395"></path>
            <path d="M138.469887,29.0820304 L141.780071,28.3148386 L139.697267,19.276488 C139.895862,19.1965892 140.127827,19.1175056 140.389094,19.0327151 C140.651174,18.9511856 140.899417,18.8802551 141.140335,18.8256304 C141.9046,18.6462656 142.485734,18.7481774 142.868273,19.1272892 C143.25244,19.5072162 143.569866,20.2311974 143.815667,21.3024939 L145.245713,27.5117739 L148.560781,26.7478433 L147.02981,20.1349927 C146.853191,19.3335586 146.602506,18.6242527 146.287521,18.0078904 C145.976607,17.3956045 145.570464,16.8917527 145.074791,16.5085645 C144.582374,16.1212998 143.972753,15.8750809 143.254881,15.7666468 C142.534568,15.6606586 141.678332,15.7209904 140.688614,15.950088 C139.705407,16.1759245 138.792196,16.462908 137.934332,16.8102233 C137.081351,17.1575386 136.383827,17.4763186 135.860481,17.7714551 L138.469887,29.0820304 Z" id="Fill-76" fill="#002395"></path>
            <path d="M155.602919,17.7065576 C155.527225,17.4277271 155.413277,17.1660176 155.270029,16.9165376 C155.128408,16.6678729 154.947719,16.4616035 154.73366,16.2903918 C154.512275,16.1232565 154.259962,16.0025929 153.969395,15.9275859 C153.675573,15.8533941 153.337799,15.8615471 152.952004,15.9512294 C152.583302,16.0384659 152.279712,16.17462 152.038794,16.3621376 C151.805201,16.5504706 151.618815,16.7689694 151.493472,17.0168188 C151.358362,17.2662988 151.280227,17.5386071 151.245229,17.8353741 C151.213486,18.1321412 151.21023,18.4280929 151.227322,18.7224141 L155.602919,17.7065576 Z M148.12143,20.7769553 C147.88214,19.7358247 147.827608,18.7908988 147.966787,17.9381012 C148.107594,17.0861188 148.376185,16.3376788 148.770119,15.6984882 C149.17382,15.0576671 149.677632,14.5285412 150.292136,14.1045882 C150.904199,13.6814506 151.56591,13.3895753 152.279712,13.2232553 C153.933583,12.8400671 155.368512,13.0447059 156.562522,13.8388024 C157.758161,14.6328988 158.590794,16.0156376 159.044143,17.9910953 C159.087281,18.1835047 159.130418,18.3962965 159.165416,18.6319165 C159.208554,18.8650906 159.236227,19.0721753 159.260644,19.2523553 L151.748227,20.9913776 C151.98182,21.6574729 152.424589,22.1246365 153.083044,22.3928682 C153.739872,22.6635459 154.541576,22.6904506 155.484088,22.4695059 C156.093709,22.3325365 156.67647,22.1376812 157.236442,21.8906471 C157.793973,21.6444282 158.244881,21.3949482 158.576143,21.1487294 L159.636672,23.7405494 C159.485284,23.8701812 159.266342,24.0120424 158.989611,24.1685788 C158.72102,24.3275612 158.401152,24.4840976 158.059309,24.6316659 C157.710954,24.7824953 157.330856,24.9300635 156.925528,25.0686635 C156.520199,25.2121553 156.111615,25.3287424 155.698147,25.4241318 C154.649013,25.66872 153.695921,25.72416 152.847009,25.5928976 C151.998098,25.4600047 151.254182,25.1819894 150.619329,24.7580365 C149.980408,24.3365294 149.453806,23.7796835 149.03871,23.0948365 C148.626056,22.4083588 148.317583,21.6362753 148.12143,20.7769553 L148.12143,20.7769553 Z" id="Fill-78" fill="#002395"></path>
            <path d="M164.233327,20.60982 C164.84539,20.4704047 165.255602,20.3146835 165.481056,20.1369494 C165.708952,19.9600306 165.783018,19.6991365 165.705696,19.3567129 C165.641397,19.0909271 165.422454,18.8952565 165.052938,18.7705165 C164.680979,18.6465918 164.130774,18.5348965 163.406392,18.4370612 C162.84235,18.3628694 162.325515,18.2715565 161.855073,18.1614918 C161.38219,18.0514271 160.965466,17.8859224 160.606531,17.6649776 C160.238642,17.4448482 159.935866,17.1513424 159.6746,16.7901671 C159.422287,16.4257306 159.233459,15.9626435 159.100792,15.3960141 C158.850106,14.2994435 159.054399,13.3373965 159.727505,12.5106882 C160.388402,11.68398 161.435094,11.1051212 162.86107,10.7757424 C163.569174,10.6118682 164.26507,10.5172941 164.947943,10.49202 C165.628374,10.4683765 166.178579,10.4863129 166.597745,10.5458294 L166.615651,13.2591282 C166.195672,13.2159176 165.752903,13.1955353 165.275136,13.1963506 C164.802253,13.1971659 164.282976,13.2615741 163.716493,13.3903906 C162.681195,13.6309024 162.231101,14.0409953 162.364583,14.6206694 C162.390628,14.7527471 162.445974,14.8660729 162.511087,14.9614624 C162.579456,15.0560365 162.687706,15.13512 162.848861,15.2003435 C163.000249,15.2663824 163.206983,15.3283447 163.462552,15.3862306 C163.720562,15.4473776 164.043686,15.5020024 164.426225,15.5533659 C165.21572,15.6552776 165.873362,15.7816482 166.412986,15.9373694 C166.947727,16.0865682 167.385613,16.2830541 167.729898,16.5219353 C168.073369,16.7632624 168.342774,17.0559529 168.538927,17.3991918 C168.734266,17.7456918 168.887282,18.1623071 169.000416,18.6522988 C169.269007,19.8043094 169.037856,20.7794012 168.30859,21.5710518 C167.577696,22.3643329 166.41787,22.9456376 164.832367,23.31252 C163.796256,23.5530318 162.913974,23.6606506 162.186336,23.6418988 C161.452186,23.6231471 160.940235,23.5856435 160.646413,23.5293882 L160.580486,20.7084706 C161.197432,20.7981529 161.810308,20.8389176 162.436207,20.8283188 C163.055595,20.81772 163.657077,20.7451588 164.233327,20.60982" id="Fill-80" fill="#002395"></path>
            <path d="M170.335233,7.57188106 C169.404931,8.45402929 168.216618,8.24775988 167.483282,7.469154 C166.742621,6.68484106 166.61972,5.48228224 167.554906,4.61073282 C168.490906,3.726954 169.677592,3.93811518 170.403602,4.71182929 C170.777188,5.11050812 170.978225,5.58174812 170.990433,6.12228812 C171.005898,6.65875165 170.787769,7.14466694 170.335233,7.57188106" id="Fill-82" fill="#002395"></path>
            <polygon id="Fill-84" fill="#002395" points="171.267571 9.16186765 167.948433 9.92824412 170.651439 21.6366829 173.963251 20.8711218"></polygon>
            <path d="M178.324929,17.3534538 C178.931295,17.2107773 179.353715,17.0558714 179.575914,16.8781373 C179.79567,16.7004032 179.873806,16.4411396 179.79567,16.0995314 C179.728929,15.8321149 179.513242,15.6356291 179.146982,15.5100738 C178.772582,15.3869644 178.22319,15.2768996 177.498808,15.1766185 C176.93558,15.1040573 176.416303,15.0135596 175.945862,14.9018644 C175.477048,14.7909844 175.058696,14.6271102 174.695691,14.4077961 C174.332686,14.1852208 174.025027,13.8957914 173.767016,13.5297244 C173.515517,13.1661032 173.32262,12.7022008 173.192394,12.1388326 C172.938453,11.0406314 173.145187,10.0785844 173.811782,9.25106082 C174.482446,8.42516788 175.526696,7.84793965 176.951858,7.51856082 C177.662404,7.35387141 178.355858,7.258482 179.037917,7.23239259 C179.719976,7.20956435 180.26774,7.22831612 180.684463,7.286202 L180.707253,10.002762 C180.288088,9.95873612 179.845319,9.93672318 179.369994,9.93672318 C178.896296,9.93753847 178.374578,10.002762 177.807281,10.1315785 C176.770355,10.3729055 176.321075,10.7838138 176.450488,11.361042 C176.485486,11.4947502 176.532693,11.6088914 176.601875,11.7018349 C176.668616,11.7964091 176.785006,11.8754926 176.93558,11.9415314 C177.098362,12.0059396 177.301027,12.0662714 177.551712,12.1266032 C177.807281,12.1885655 178.127962,12.2440055 178.517013,12.2961844 C179.309764,12.3964655 179.964964,12.5228361 180.499705,12.677742 C181.039329,12.8285714 181.476401,13.0250573 181.8215,13.2631232 C182.166599,13.5052655 182.436004,13.7979561 182.631343,14.1411949 C182.82831,14.4844338 182.980512,14.9018644 183.093646,15.3918561 C183.360609,16.5471279 183.130272,17.5205891 182.398564,18.3122396 C181.668484,19.1063361 180.509472,19.6876408 178.924783,20.0537079 C177.889486,20.2934044 177.00639,20.4034691 176.272241,20.3830867 C175.543789,20.3667808 175.033465,20.3276467 174.736387,20.2705761 L174.672902,17.4480279 C175.286592,17.5409714 175.905166,17.5809208 176.527809,17.570322 C177.149639,17.5597232 177.748679,17.4863467 178.324929,17.3534538" id="Fill-86" fill="#002395"></path>
            <path d="M41.9790303,36.6457585 C41.6754407,36.7158738 41.3783624,36.794142 41.0894233,36.8805632 C40.7996703,36.9661691 40.549799,37.0428067 40.3414372,37.1080302 L41.5728877,42.4571749 L42.8808459,42.1547008 C44.3239137,41.8220608 45.3616529,41.3752796 46.0030163,40.813542 C46.642752,40.2526196 46.8372772,39.4373255 46.5931033,38.3684749 C46.4726442,37.8515785 46.2813746,37.4439314 46.016039,37.1479796 C45.7523311,36.8536585 45.4218824,36.6441279 45.0271346,36.5193879 C44.6323868,36.3938326 44.1774094,36.3489914 43.6613885,36.3832338 C43.1445537,36.419922 42.5829537,36.5071585 41.9790303,36.6457585 M40.8916424,33.1465161 C43.6491798,32.5097714 45.8793016,32.5056949 47.5803798,33.135102 C49.2814581,33.7661396 50.386752,35.1904585 50.8954477,37.3990902 C51.4106546,39.6297349 51.0338129,41.4111526 49.7657363,42.7449738 C48.4984737,44.0820561 46.4775277,45.0693773 43.703712,45.7118291 L42.3924981,46.0134879 L43.824985,52.2178761 L39.6577503,53.1807385 L35.4498198,34.9165196 C36.3166372,34.5251785 37.2477537,34.1778632 38.246425,33.8713126 C39.2442824,33.564762 40.1265642,33.3250655 40.8916424,33.1465161" id="Fill-88" fill="#002395"></path>
            <g id="Group-2" transform="translate(-0.000263, -0.000030)">
                <path d="M25.6036888,28.5708712 C25.6557792,28.5602724 24.1386453,21.3514418 23.757734,19.1501477 C21.8019009,7.87626065 29.7440644,3.77533124 33.9243218,8.18036535 C42.1741444,16.8730312 29.0807253,27.0886665 29.0807253,27.0886665 C29.0807253,27.0886665 41.2934905,22.0330277 39.145574,10.9230148 C38.1835288,5.95787359 31.919654,0.617697118 24.1459705,1.47864771 C19.9551322,1.94091947 15.7325514,5.27547241 18.000927,15.4544195 C18.6398488,18.333223 20.0259427,22.6461289 21.9557305,29.1122265 C23.1578801,29.033143 24.3771218,28.8545936 25.6036888,28.5708712" id="Fill-90" fill="#002395"></path>
                <path d="M25.7081952,0.00777558809 C32.9235343,0.496136765 38.9350961,4.63864618 40.3529326,10.7949321 C42.183423,18.7342662 35.6883969,27.0152085 25.8441187,29.2915097 C24.5288352,29.5956144 23.2208769,29.777425 21.9373361,29.8442791 C13.6085639,30.2796462 6.29392736,25.9153768 4.70761084,19.0367403 C3.29058823,12.8812697 6.87831693,6.51871441 13.1535865,2.91103794 C4.0874091,7.08778971 -1.41952655,15.0564744 0.319805621,22.5922379 C2.4213291,31.7064109 14.3174821,36.7424826 26.8916248,33.8302521 C39.4649534,30.9237285 47.9540665,21.1768874 45.8549848,12.0627144 C44.1164665,4.52613559 35.6851413,-0.218876177 25.7081952,0.00777558809" id="Fill-59" fill="#E21F26"></path>
                <path d="M26.8904853,34.6426111 C25.7786801,34.8994288 24.6733861,35.0975452 23.5786731,35.2336994 C28.3229722,50.888977 34.0805931,68.657497 34.0805931,68.657497 C34.0805931,68.657497 30.0997444,49.7320746 26.9474592,34.6287511" id="Fill-92" fill="#002395"></path>
            </g>
            <path d="M65.8655061,24.9104149 C65.1476348,21.7943608 62.9093739,20.2746526 60.633673,20.8005173 C59.0343339,21.1706608 57.4211583,22.4816538 58.2179791,25.9466538 C58.8853878,28.8401326 61.0129565,30.7666726 63.6793357,30.1494949 C64.6519617,29.9244738 66.7941809,28.9314455 65.8655061,24.9104149 M56.4021391,26.8206491 C55.8535617,24.4416208 56.7146817,21.0035255 60.8802887,20.0398479 C64.3394191,19.2400444 66.9577774,20.7597526 67.6927409,23.945922 C68.4260765,27.1329067 66.7844139,30.1633549 63.2569148,30.9786491 C59.2703687,31.9023773 56.9694365,29.2836526 56.4021391,26.8206491" id="Fill-94" fill="#E21F26"></path>
            <path d="M74.8348278,19.9497579 C75.0912104,19.3472555 75.2401565,18.9754814 75.5014226,18.8425885 C75.6593217,18.7618744 75.8050122,18.6990967 75.9319826,18.6697461 C76.0548835,18.6420261 76.1118574,18.5694649 76.0955791,18.5001649 C76.0760452,18.4161896 75.9881426,18.4072214 75.8489635,18.4406485 C75.3899165,18.5458214 74.8966852,18.6901285 74.6614643,18.7439379 C74.4246157,18.7985626 73.8491791,18.9021049 73.3762957,19.0113544 C73.195607,19.0521191 73.1182852,19.1002214 73.1370052,19.185012 C73.1565391,19.2673567 73.2493252,19.2893696 73.3201357,19.2730638 C73.4161774,19.2518661 73.5830296,19.212732 73.7173252,19.226592 C73.8491791,19.2241461 73.9509183,19.2885544 73.9704522,19.3717144 C73.9932417,19.4695496 73.9899861,19.6464685 73.9313843,19.8348014 C73.8003443,20.2171744 73.0857287,22.0687073 72.8464383,22.6809932 C72.1725183,21.9863626 71.4855757,21.2803179 70.7261948,20.4593167 C70.6268974,20.3508826 70.536553,20.210652 70.5194609,20.141352 C70.5039965,20.0712367 70.5438783,19.988892 70.6480591,19.9358979 C70.7384035,19.8845344 70.8604904,19.8429544 70.930487,19.8258332 C71.041993,19.8005591 71.1152452,19.7402273 71.0957113,19.656252 C71.0761774,19.5722767 70.9874609,19.5641238 70.8206087,19.6024426 C70.3615617,19.7084308 69.6176452,19.9098085 69.451607,19.9497579 C68.8680313,20.0842814 67.8750574,20.2840285 67.5836765,20.3508826 C67.4306609,20.3867555 67.3395026,20.4364885 67.3565948,20.5074191 C67.3753148,20.5889485 67.4444974,20.6329744 67.51368,20.6158532 C67.6390226,20.5881332 67.8400591,20.571012 68.0459791,20.5799802 C68.5099096,20.6207449 68.8159409,20.8131544 69.2318504,21.2159096 L72.1603096,24.0841144 L70.5153913,27.8654485 C70.2297078,28.5315438 70.0799478,28.7720555 69.7421739,28.9530508 C69.5712522,29.0362108 69.3938191,29.0924661 69.3108,29.1112179 C69.2139443,29.1340461 69.1594122,29.219652 69.1740626,29.288952 C69.1903409,29.358252 69.2562678,29.3867873 69.3816104,29.358252 L69.5907861,29.3093344 C69.7836835,29.2653085 70.3721426,29.0851285 70.6089913,29.0313191 C70.9142087,28.9603885 71.7281217,28.8160814 71.7989322,28.7989602 L72.0211304,28.7475967 C72.1863548,28.7092779 72.2636765,28.6628061 72.2449565,28.5788308 C72.2294922,28.5087155 72.1293809,28.4581673 72.0601983,28.4752885 C71.9625287,28.4973014 71.8624174,28.5070849 71.7924209,28.5225755 C71.6809148,28.5486649 71.5547583,28.5046391 71.5156904,28.3953896 C71.4717391,28.2739108 71.5002261,28.0757944 71.5791757,27.8524038 L72.7308626,24.6564508 C73.494313,25.4326108 74.4181043,26.3913967 75.3931722,27.3819791 C75.52584,27.5116108 75.460727,27.6143379 75.4086365,27.6412426 C75.3036417,27.695052 75.2621322,27.764352 75.2775965,27.8328367 C75.2963165,27.916812 75.4143339,27.9192579 75.7366435,27.8597414 C76.74264,27.6559179 77.71608,27.4308967 78.0074609,27.3632273 L78.3688383,27.2800673 C78.5072035,27.2482708 78.5951061,27.1838626 78.5747583,27.0998873 C78.5601078,27.0305873 78.4770887,26.9914532 78.3940696,27.0110202 C78.2817496,27.0362944 78.0864104,27.0672755 77.9057217,27.0493391 C77.6232939,27.0265108 77.3994678,26.9474273 77.1300626,26.7305591 C76.7377565,26.4256391 73.9696383,23.6821744 73.4446643,23.1864755 L74.8348278,19.9497579 Z" id="Fill-96" fill="#E21F26"></path>
            <path d="M81.1298755,23.0656489 C81.3935833,24.2070607 81.5986894,25.0370301 81.770425,25.5270219 C81.8916981,25.8645536 82.0259937,26.0675619 82.4012077,26.0390266 C82.5737572,26.0284278 82.8423485,25.981956 83.0083868,25.9436372 C83.1605885,25.9085795 83.2330268,25.9648348 83.2460494,26.0202748 C83.2647694,26.1034348 83.1915172,26.1653972 83.0092007,26.2061619 C82.2319137,26.3863419 81.3626546,26.5436936 81.0427868,26.6178854 C80.722919,26.6912619 79.9537711,26.9138372 79.4955381,27.0198254 C79.3286859,27.0581442 79.2391555,27.0483607 79.215552,26.9513407 C79.2033433,26.896716 79.2310163,26.8168172 79.3685677,26.7850207 C79.5500703,26.7426254 79.6851798,26.6977842 79.7893607,26.6439748 C80.0270233,26.5298336 80.0449294,26.2917678 80.0074894,25.9338536 C79.9464459,25.4194031 79.7445955,24.5429619 79.4808877,23.4031807 L79.000679,21.3160278 C78.5863972,19.5207501 78.5090755,19.1864795 78.4081503,18.8155207 C78.289319,18.4184725 78.1444424,18.3051466 77.7342303,18.2969936 C77.6308633,18.2921019 77.4192459,18.3263442 77.2385572,18.3679242 C77.127865,18.3931984 77.0204285,18.3744466 77.0017085,18.2904713 C76.9829885,18.2073113 77.0733329,18.1567631 77.2670442,18.1119219 C77.8921294,17.9676148 78.6759277,17.8159701 79.0234685,17.7344407 C79.4971659,17.6260066 82.2066824,17.0129054 82.4964355,16.9321913 C82.7153781,16.8661525 82.8643242,16.8180501 82.9831555,16.7609795 C83.0490824,16.7308136 83.0922198,16.6615136 83.1622163,16.6460231 C83.202912,16.6362395 83.2582581,16.6827113 83.2704668,16.7381513 C83.2891868,16.8229419 83.2663972,16.972956 83.2948842,17.2892901 C83.3095346,17.4181066 83.4438303,18.1192595 83.4625503,18.261936 C83.4698755,18.3622172 83.474759,18.5081548 83.3909259,18.5269066 C83.3070929,18.5464736 83.2248877,18.5073395 83.193145,18.3687395 C83.1703555,18.2717195 83.1434963,18.0858325 83.0205955,17.9382642 C82.8993224,17.790696 82.6209642,17.6643254 82.1602894,17.7564536 L80.1222511,18.1836678 C80.0522546,18.1999736 80.0172563,18.2382925 80.0498129,18.3768925 L80.7098963,21.2426513 C80.7269885,21.3119513 80.7489642,21.3510854 80.8189607,21.3347795 L82.5232946,20.9263172 C82.7332842,20.8782148 82.9001363,20.8390807 83.0775694,20.7836407 C83.2956981,20.7184172 83.4666198,20.6336266 83.5431277,20.4558925 C83.596032,20.3694713 83.6106824,20.3083242 83.679865,20.2928336 C83.7221885,20.2830501 83.7604424,20.3181078 83.7759068,20.3874078 C83.792185,20.4567078 83.8092772,20.7901631 83.8532285,21.1749819 C83.8817155,21.4179395 83.9932216,21.9641866 84.0119416,22.0473466 C84.0331033,22.1443666 84.0599624,22.3155784 83.9346198,22.3432984 C83.8638094,22.3604195 83.8035798,22.2854125 83.7848598,22.2022525 C83.764512,22.1182772 83.7050963,21.9861995 83.6171937,21.8606442 C83.5227798,21.7065536 83.3160459,21.5043607 82.9351346,21.5638772 C82.622592,21.6070878 81.1762685,21.9274984 80.966279,21.9747854 C80.9109329,21.9870148 80.8873294,22.0082125 80.9060494,22.0921878 L81.1298755,23.0656489 Z" id="Fill-98" fill="#E21F26"></path>
            <path d="M94.1425544,19.1479976 C93.538631,16.5325341 91.5990762,15.2810576 89.6269649,15.7368071 C88.2652883,16.0515106 86.8344292,17.14482 87.5083492,20.0668341 C88.0699492,22.5013024 89.9004397,24.1000941 92.2070692,23.5660765 C93.0665614,23.3671447 94.9190275,22.5143471 94.1425544,19.1479976 M85.7852953,20.84544 C85.320551,18.8292176 86.1336501,15.8860059 89.8426518,15.0275012 C92.9265683,14.3149341 95.2380814,15.5827165 95.8623527,18.2960153 C96.4882518,21.0093141 95.0069301,23.5937965 91.853017,24.3226694 C88.297031,25.1453012 86.2695736,22.9464529 85.7852953,20.84544" id="Fill-100" fill="#E21F26"></path>
            <path d="M99.7176146,17.4915646 C99.7452877,17.6171199 99.7835416,17.6529928 99.8771416,17.6750058 C100.159569,17.6970187 100.527458,17.6415787 100.833489,17.5714634 C101.320209,17.4589528 101.476481,17.3782387 101.64903,17.1776764 C101.962387,16.8262846 102.263535,16.214814 102.037267,15.2413528 C101.6531,13.5716305 100.412696,13.4036799 99.6931972,13.5699999 C99.3847242,13.6409305 99.0974129,13.7224599 98.9785816,13.7795305 C98.9028877,13.8260022 98.8833537,13.8741046 98.9069572,13.9719399 L99.7176146,17.4915646 Z M97.3597085,14.4333964 C97.2384355,14.0347175 97.0984424,13.9352516 96.6833468,13.914054 C96.5807937,13.9091622 96.3691763,13.9434046 96.1893016,13.9857999 C96.0623311,14.0135199 95.970359,13.9923222 95.951639,13.9075316 C95.932105,13.8251869 96.0216355,13.7738234 96.2023242,13.7322434 C96.8420598,13.5846752 97.626672,13.4330305 97.8773572,13.3759599 C98.2932668,13.2789399 99.3977468,12.9935869 99.7721468,12.9071658 C100.551062,12.7278011 101.455319,12.5916469 102.208189,12.8712928 C102.609448,13.0278293 103.261392,13.5064069 103.443709,14.3005034 C103.646373,15.1761293 103.324063,16.0713222 102.353065,17.3073081 C103.743229,18.3932799 104.851778,19.2648293 105.758477,19.832274 C106.595994,20.3565081 107.037135,20.3124822 107.243055,20.3092211 C107.374095,20.3084058 107.442463,20.2929152 107.541761,20.2692716 C107.638616,20.2472587 107.709427,20.3043293 107.721635,20.3597693 C107.745239,20.4567893 107.668731,20.5040764 107.514902,20.5399493 L106.34775,20.8089964 C105.668947,20.9663481 105.318964,20.9736858 104.961656,20.8815575 C104.372383,20.7388811 103.785552,20.2880234 102.892689,19.5281693 C102.260279,18.9998587 101.563569,18.3247952 101.367416,18.1804881 C101.282769,18.1266787 101.211145,18.1291246 101.127312,18.1478764 L100.022832,18.3737128 C99.9682998,18.3867575 99.9316737,18.4234458 99.947952,18.4935611 L99.9870198,18.6606964 C100.240961,19.7597128 100.467229,20.6736575 100.636522,21.162834 C100.759423,21.5011811 100.866046,21.7115269 101.253469,21.6805458 C101.441482,21.6666858 101.707632,21.6193987 101.859834,21.5835258 C101.956689,21.5615128 102.029128,21.6185834 102.040522,21.6723928 C102.06087,21.7563681 101.973782,21.8207764 101.822394,21.8566493 C101.112662,22.0197081 100.089573,22.2129328 99.9072563,22.2545128 C99.6712216,22.3091375 98.9045155,22.5317128 98.4177955,22.6417775 C98.2655937,22.6792811 98.1719937,22.6556375 98.1524598,22.5732928 C98.141065,22.5178528 98.1654824,22.437954 98.319312,22.4020811 C98.4991868,22.3605011 98.6351103,22.3156599 98.740105,22.2618505 C98.9769537,22.1477093 98.9956737,21.9088281 98.9566059,21.550914 C98.8646337,20.7600787 97.5444668,15.1141669 97.3597085,14.4333964 L97.3597085,14.4333964 Z" id="Fill-102" fill="#E21F26"></path>
            <path d="M110.001569,18.0440894 C110.084588,18.3335188 110.206675,18.7452424 110.333645,18.8471541 C110.537937,19.0346718 111.080817,19.1724565 112.038793,18.9506965 C113.150598,18.6938788 113.92463,18.30906 114.5196,17.5271929 C115.162591,16.6907012 115.167475,15.5753788 114.885861,14.3516224 C114.53832,12.84822 113.717896,12.0117282 113.066765,11.6652282 C111.710786,10.9233106 110.34911,11.1067518 109.389506,11.3276965 C109.140449,11.3855824 108.743259,11.5062459 108.659426,11.5845141 C108.560129,11.6521835 108.5292,11.7165918 108.561757,11.8568224 C108.690355,12.5172106 109.792393,17.3347835 110.001569,18.0440894 M106.889979,12.2285965 C106.771148,11.8315482 106.629527,11.7312671 106.215245,11.7100694 C106.11025,11.7051776 105.898633,11.73942 105.720386,11.781 C105.59423,11.8103506 105.501443,11.7875224 105.482723,11.7035471 C105.464003,11.6212024 105.553534,11.5698388 105.735037,11.5290741 C106.373144,11.3806906 107.157757,11.2290459 107.504483,11.1483318 C107.878883,11.0619106 108.748957,10.8319976 109.487176,10.6607859 C111.012449,10.3085788 113.068393,9.83163176 114.713311,10.8735776 C115.464553,11.3440024 116.236143,12.2065835 116.557638,13.6121506 C116.901923,15.1016929 116.52264,16.3759976 115.98383,17.2190118 C115.558153,17.9038588 114.458557,19.0363024 112.207273,19.55646 C111.76369,19.6591871 111.227322,19.7415318 110.73409,19.8246918 C110.238417,19.8956224 109.785068,19.9706294 109.481478,20.0407447 C109.343927,20.0733565 109.082661,20.1475482 108.79128,20.2160329 C108.501527,20.2967471 108.200379,20.3815376 107.948066,20.4394235 C107.796678,20.4744812 107.703078,20.4516529 107.68273,20.3676776 C107.671336,20.3130529 107.695753,20.2331541 107.848769,20.1980965 C108.031899,20.1565165 108.166195,20.11086 108.272003,20.0570506 C108.507224,19.9420941 108.526758,19.7056588 108.48769,19.3469294 C108.395718,18.5414188 107.075551,12.9142588 106.889979,12.2285965" id="Fill-104" fill="#E21F26"></path>
        </g>
    </g>
</svg>